<?xml version="1.0" encoding="UTF-8"?>
<svg id="Layer_1" data-name="Layer 1" xmlns="http://www.w3.org/2000/svg" viewBox="0 0 1266.7 383.15">
  <defs>
    <style>
      .cls-1 {
        fill: #42a5f5;
      }

      .cls-2 {
        fill: #ab47bc;
      }

      .cls-3 {
        fill: #7d7;
      }

      .cls-4 {
        fill: #fdfd96;
      }

      .cls-5 {
        fill: #ffb347;
      }

      .cls-6 {
        fill: #ff6961;
      }
    </style>
  </defs>
  <path class="cls-6" d="m.34,170.21c0-7.52.85-14.81,2.56-21.88,1.71-7.06,3.98-13.84,6.84-20.34,2.85-6.49,6.32-12.59,10.42-18.29,4.1-5.69,8.6-10.99,13.5-15.89,4.9-4.9,10.14-9.28,15.72-13.16,5.58-3.87,11.33-7.18,17.26-9.91,5.92-2.73,12.02-4.9,18.29-6.49,6.26-1.59,12.48-2.5,18.63-2.73,12.53-.45,23.93.68,34.18,3.42s19.08,6.61,26.49,11.62c7.4,5.01,13.1,11.11,17.09,18.29,3.98,7.18,5.98,14.99,5.98,23.41,0,3.42-.51,6.72-1.54,9.91-1.03,3.19-2.39,6.15-4.1,8.89s-3.76,5.24-6.15,7.52c-2.39,2.28-5.01,4.33-7.86,6.15-2.85,1.83-5.81,3.36-8.89,4.61-3.08,1.25-6.15,2.28-9.23,3.08-3.08.8-6.1,1.31-9.06,1.54-2.96.23-5.81.23-8.54,0-1.6-.22-3.42-.57-5.47-1.03-2.05-.45-4.1-.85-6.15-1.2s-4.1-.57-6.15-.68c-2.05-.11-4.05-.11-5.98,0-1.94.12-3.76.57-5.47,1.37-1.71.8-3.19,1.88-4.44,3.25-1.25,1.37-2.22,3.25-2.91,5.64s-1.03,5.3-1.03,8.72c0,2.28.4,4.61,1.2,7.01.8,2.39,1.99,4.5,3.59,6.32,1.59,1.83,3.7,3.31,6.32,4.44,2.62,1.14,5.75,1.71,9.4,1.71,2.05-.22,4.04-.68,5.98-1.37,1.93-.68,3.81-1.54,5.64-2.56,1.82-1.03,3.59-2.16,5.3-3.42,1.71-1.25,3.47-2.56,5.3-3.93,1.82-1.37,3.59-2.68,5.3-3.93,1.71-1.25,3.53-2.39,5.47-3.42,1.93-1.03,3.98-1.88,6.15-2.56,2.16-.68,4.38-1.03,6.67-1.03,2.96-.22,5.92-.11,8.89.34,2.96.46,5.86,1.14,8.72,2.05,2.85.91,5.69,2.05,8.54,3.42,2.85,1.37,5.47,3.02,7.86,4.96,2.39,1.94,4.61,4.16,6.67,6.67,2.05,2.51,3.76,5.3,5.13,8.37s2.45,6.44,3.25,10.08c.8,3.65,1.2,7.52,1.2,11.62,0,5.01-.8,9.8-2.39,14.36-1.6,4.56-3.82,8.89-6.67,12.99-2.85,4.1-6.27,7.98-10.25,11.62-3.99,3.65-8.26,6.95-12.82,9.91-4.56,2.96-9.46,5.64-14.7,8.03-5.24,2.39-10.48,4.44-15.72,6.15-5.24,1.71-10.48,3.02-15.72,3.93-5.24.91-10.25,1.37-15.04,1.37-6.61,0-13.39-.45-20.34-1.37-6.95-.91-13.79-2.39-20.51-4.44-6.72-2.05-13.33-4.73-19.82-8.03-6.49-3.3-12.59-7.23-18.29-11.79-5.7-4.56-10.94-9.91-15.72-16.06s-8.89-13.04-12.3-20.68c-3.42-7.63-6.04-16.12-7.86-25.46-1.83-9.34-2.62-19.71-2.39-31.1Z"/>
  <path class="cls-5" d="m330.52,288.48c-7.98,0-15.78-.74-23.41-2.22-7.64-1.48-14.93-3.64-21.88-6.49-6.95-2.85-13.56-6.32-19.82-10.42-6.27-4.1-12.08-8.77-17.43-14.01-5.36-5.24-10.14-10.88-14.36-16.92-4.22-6.04-7.81-12.48-10.77-19.31s-5.24-13.96-6.84-21.36c-1.59-7.4-2.39-15.09-2.39-23.07s.8-15.38,2.39-22.9c1.6-7.52,3.88-14.7,6.84-21.53s6.55-13.27,10.77-19.31c4.21-6.04,9-11.62,14.36-16.75,5.35-5.13,11.16-9.79,17.43-14.01,6.26-4.21,12.87-7.74,19.82-10.6,6.95-2.85,14.24-5.07,21.88-6.67,7.63-1.59,15.43-2.39,23.41-2.39s16.12.8,23.75,2.39c7.63,1.6,14.92,3.82,21.88,6.67,6.95,2.85,13.55,6.38,19.82,10.6,6.26,4.22,12.02,8.89,17.26,14.01,5.24,5.13,10.02,10.71,14.36,16.75,4.33,6.04,7.97,12.48,10.94,19.31,2.96,6.84,5.24,14.01,6.84,21.53,1.59,7.52,2.39,15.16,2.39,22.9s-.8,15.67-2.39,23.07c-1.6,7.41-3.88,14.53-6.84,21.36-2.96,6.84-6.61,13.28-10.94,19.31-4.33,6.04-9.12,11.68-14.36,16.92-5.24,5.24-11,9.91-17.26,14.01-6.27,4.1-12.88,7.58-19.82,10.42-6.95,2.85-14.24,5.01-21.88,6.49-7.64,1.48-15.55,2.22-23.75,2.22Zm0-95.02c2.96,0,5.69-.51,8.2-1.54,2.5-1.03,4.73-2.39,6.67-4.1,1.93-1.71,3.42-3.7,4.44-5.98,1.03-2.28,1.54-4.67,1.54-7.18s-.51-4.9-1.54-7.18c-1.03-2.28-2.51-4.27-4.44-5.98-1.94-1.71-4.16-3.08-6.67-4.1-2.51-1.03-5.24-1.54-8.2-1.54-2.73,0-5.36.51-7.86,1.54-2.51,1.03-4.73,2.39-6.67,4.1-1.94,1.71-3.48,3.71-4.61,5.98-1.14,2.28-1.71,4.67-1.71,7.18s.57,4.9,1.71,7.18c1.14,2.28,2.68,4.27,4.61,5.98,1.93,1.71,4.15,3.08,6.67,4.1,2.5,1.03,5.13,1.54,7.86,1.54Z"/>
  <path class="cls-4" d="m564.65,288.48c-7.98,0-15.78-.74-23.41-2.22-7.64-1.48-14.93-3.64-21.88-6.49-6.95-2.85-13.56-6.32-19.82-10.42-6.27-4.1-12.08-8.77-17.43-14.01-5.36-5.24-10.14-10.88-14.36-16.92-4.22-6.04-7.81-12.48-10.77-19.31s-5.24-13.96-6.84-21.36c-1.59-7.4-2.39-15.09-2.39-23.07s.8-15.38,2.39-22.9c1.6-7.52,3.88-14.7,6.84-21.53s6.55-13.27,10.77-19.31c4.21-6.04,9-11.62,14.36-16.75,5.35-5.13,11.16-9.79,17.43-14.01,6.26-4.21,12.87-7.74,19.82-10.6,6.95-2.85,14.24-5.07,21.88-6.67,7.63-1.59,15.43-2.39,23.41-2.39s16.12.8,23.75,2.39c7.63,1.6,14.92,3.82,21.88,6.67,6.95,2.85,13.55,6.38,19.82,10.6,6.26,4.22,12.02,8.89,17.26,14.01,5.24,5.13,10.02,10.71,14.36,16.75,4.33,6.04,7.97,12.48,10.94,19.31,2.96,6.84,5.24,14.01,6.84,21.53,1.59,7.52,2.39,15.16,2.39,22.9s-.8,15.67-2.39,23.07c-1.6,7.41-3.88,14.53-6.84,21.36-2.96,6.84-6.61,13.28-10.94,19.31-4.33,6.04-9.12,11.68-14.36,16.92s-11,9.91-17.26,14.01c-6.27,4.1-12.88,7.58-19.82,10.42-6.95,2.85-14.24,5.01-21.88,6.49-7.64,1.48-15.55,2.22-23.75,2.22Zm0-95.02c2.96,0,5.69-.51,8.2-1.54,2.5-1.03,4.73-2.39,6.67-4.1,1.93-1.71,3.42-3.7,4.44-5.98,1.03-2.28,1.54-4.67,1.54-7.18s-.51-4.9-1.54-7.18c-1.03-2.28-2.51-4.27-4.44-5.98-1.94-1.71-4.16-3.08-6.67-4.1-2.51-1.03-5.24-1.54-8.2-1.54-2.73,0-5.36.51-7.86,1.54-2.51,1.03-4.73,2.39-6.67,4.1-1.94,1.71-3.48,3.71-4.61,5.98-1.14,2.28-1.71,4.67-1.71,7.18s.57,4.9,1.71,7.18c1.14,2.28,2.68,4.27,4.61,5.98,1.93,1.71,4.15,3.08,6.67,4.1,2.5,1.03,5.13,1.54,7.86,1.54Z"/>
  <path class="cls-3" d="m689.4,92.63c0-2.05.34-4.1,1.03-6.15s1.59-3.98,2.73-5.81c1.14-1.82,2.56-3.59,4.27-5.3s3.47-3.25,5.3-4.61c1.82-1.37,3.81-2.62,5.98-3.76,2.16-1.14,4.38-2.1,6.67-2.91,2.28-.8,4.5-1.42,6.67-1.88,2.16-.45,4.27-.68,6.32-.68h96.04c4.79,0,9.51.74,14.18,2.22,4.67,1.48,9.11,3.54,13.33,6.15,4.21,2.62,8.32,5.7,12.3,9.23,3.98,3.54,7.69,7.47,11.11,11.79,3.42,4.33,6.49,8.83,9.23,13.5,2.73,4.67,5.07,9.52,7.01,14.53,1.93,5.01,3.42,10.03,4.44,15.04,1.03,5.01,1.54,9.91,1.54,14.7,0,5.47-.51,10.83-1.54,16.06-1.03,5.24-2.51,10.37-4.44,15.38-1.94,5.01-4.22,9.86-6.84,14.53-2.62,4.67-5.47,9.06-8.54,13.16s-6.27,7.81-9.57,11.11c-3.31,3.31-6.67,6.1-10.08,8.37-3.42,2.28-6.78,4.1-10.08,5.47-3.31,1.37-6.44,2.05-9.4,2.05h-30.42c-2.51,0-5.42.12-8.72.34-3.31.23-6.38.8-9.23,1.71-2.85.91-5.3,2.17-7.35,3.76-2.05,1.6-3.08,3.65-3.08,6.15,0,5.7-.68,11.17-2.05,16.41-1.37,5.24-3.76,9.74-7.18,13.5s-7.86,6.78-13.33,9.06c-5.47,2.28-12.19,3.42-20.17,3.42-2.28,0-4.67-.17-7.18-.51-2.51-.34-5.07-.91-7.69-1.71-2.62-.8-5.25-1.71-7.86-2.73-2.62-1.03-5.07-2.16-7.35-3.42-2.28-1.25-4.39-2.73-6.32-4.44-1.94-1.71-3.65-3.47-5.13-5.3-1.49-1.82-2.62-3.76-3.42-5.81-.8-2.05-1.2-4.21-1.2-6.49V92.63Zm103.56,72.46c2.05,0,4.04-.4,5.98-1.2,1.93-.8,3.59-1.88,4.96-3.25s2.45-3.02,3.25-4.96c.8-1.93,1.2-3.93,1.2-5.98s-.4-3.98-1.2-5.81c-.8-1.82-1.88-3.42-3.25-4.79s-3.02-2.5-4.96-3.42c-1.94-.91-3.93-1.37-5.98-1.37s-3.99.46-5.81,1.37c-1.83.91-3.42,2.05-4.79,3.42s-2.45,2.96-3.25,4.79c-.8,1.83-1.2,3.76-1.2,5.81s.39,4.05,1.2,5.98c.8,1.94,1.88,3.59,3.25,4.96s2.96,2.45,4.79,3.25c1.82.8,3.76,1.2,5.81,1.2Z"/>
  <path class="cls-1" d="m907.81,83.4c0-1.82.4-3.59,1.2-5.3.8-1.71,1.82-3.25,3.08-4.61,1.25-1.37,2.79-2.62,4.61-3.76,1.82-1.14,3.81-2.16,5.98-3.08,2.16-.91,4.38-1.65,6.67-2.22,2.28-.57,4.56-1.08,6.84-1.54,2.28-.45,4.56-.8,6.84-1.03,2.28-.22,4.33-.34,6.15-.34,1.82-.22,3.81-.22,5.98,0,2.16.23,4.38.51,6.67.85,2.28.34,4.5.8,6.67,1.37,2.16.57,4.27,1.25,6.32,2.05,2.05.8,3.93,1.71,5.64,2.73s3.25,2.17,4.61,3.42c1.37,1.25,2.39,2.68,3.08,4.27.68,1.6,1.03,3.31,1.03,5.13v100.15c0,2.28.11,4.5.34,6.67.22,2.17.97,4.1,2.22,5.81,1.25,1.71,3.13,3.13,5.64,4.27,2.5,1.14,6.04,1.83,10.6,2.05,3.19,0,6.55.12,10.08.34,3.53.23,7.12.63,10.77,1.2,3.64.57,7.23,1.25,10.77,2.05,3.53.8,6.89,1.94,10.08,3.42,3.19,1.48,6.21,3.25,9.06,5.3,2.85,2.05,5.3,4.5,7.35,7.35,2.05,2.85,3.7,6.15,4.96,9.91,1.25,3.76,1.88,8.15,1.88,13.16.22,2.28.11,4.73-.34,7.35-.46,2.62-1.14,5.24-2.05,7.86-.91,2.62-2,5.19-3.25,7.69-1.25,2.51-2.68,4.96-4.27,7.35-1.6,2.39-3.36,4.56-5.3,6.49s-3.99,3.59-6.15,4.96c-2.17,1.37-4.39,2.45-6.67,3.25-2.28.8-4.67,1.2-7.18,1.2h-78.96c-2.28,0-4.84-.17-7.69-.51-2.85-.34-5.7-.8-8.54-1.37-2.85-.57-5.7-1.31-8.54-2.22-2.85-.91-5.53-1.99-8.03-3.25-2.51-1.25-4.9-2.62-7.18-4.1-2.28-1.48-4.22-3.19-5.81-5.13-1.6-1.93-2.85-3.93-3.76-5.98-.91-2.05-1.37-4.33-1.37-6.84V83.4Z"/>
  <path class="cls-2" d="m1081.45,88.87c0-3.42.97-6.78,2.91-10.08,1.93-3.3,4.33-6.21,7.18-8.72,2.85-2.5,6.09-4.61,9.74-6.32,3.64-1.71,7.18-2.56,10.6-2.56h104.59c2.5,0,5.01.34,7.52,1.03,2.5.68,5.01,1.66,7.52,2.91,2.5,1.25,4.96,2.68,7.35,4.27,2.39,1.6,4.61,3.36,6.67,5.3,2.05,1.94,3.87,4.05,5.47,6.32,1.59,2.28,2.96,4.61,4.1,7.01,1.14,2.39,1.93,4.84,2.39,7.35.45,2.51.45,4.9,0,7.18-.46,2.96-.91,5.93-1.37,8.89-.46,2.96-1.03,5.81-1.71,8.54s-1.6,5.36-2.73,7.86c-1.14,2.51-2.62,4.84-4.44,7.01-1.83,2.17-3.99,4.16-6.49,5.98-2.51,1.83-5.53,3.36-9.06,4.61-3.54,1.25-7.69,2.22-12.48,2.91s-10.14,1.03-16.06,1.03c-3.42.23-6.49.34-9.23.34s-5.01.06-6.84.17c-1.83.12-3.19.46-4.1,1.03-.91.57-1.37,1.31-1.37,2.22,0,1.37.28,2.45.85,3.25.57.8,1.65,1.48,3.25,2.05,1.59.57,3.81.97,6.67,1.2,2.85.23,6.55.34,11.11.34,4.79,0,8.77.34,11.96,1.03,3.19.68,5.81,1.6,7.86,2.73,2.05,1.14,3.53,2.68,4.44,4.61.91,1.94,1.37,4.05,1.37,6.32,0,2.51-.85,4.73-2.56,6.67-1.71,1.94-3.88,3.54-6.49,4.79-2.62,1.25-5.42,2.17-8.37,2.73-2.96.57-5.7.85-8.2.85-2.05,0-4.33-.05-6.84-.17-2.51-.11-4.9-.05-7.18.17-2.28.23-4.22.8-5.81,1.71-1.6.91-2.39,2.28-2.39,4.1,0,2.05.62,3.48,1.88,4.27,1.25.8,2.91,1.31,4.96,1.54,2.05.23,4.38.29,7.01.17,2.62-.11,5.41-.17,8.37-.17h24.95c2.5,0,4.79.46,6.84,1.37,2.05.91,4.04,2.11,5.98,3.59,1.93,1.48,3.64,3.31,5.13,5.47,1.48,2.17,2.85,4.44,4.1,6.84,1.25,2.39,2.33,5.01,3.25,7.86.91,2.85,1.65,5.7,2.22,8.54.57,2.85,1.03,5.7,1.37,8.54.34,2.85.4,5.64.17,8.37,0,4.56-1.14,9-3.42,13.33-2.28,4.33-5.19,8.26-8.72,11.79s-7.47,6.44-11.79,8.72c-4.33,2.28-8.66,3.42-12.99,3.42h-86.82c-2.51,0-5.19-.17-8.03-.51-2.85-.34-5.7-.85-8.54-1.54-2.85-.68-5.76-1.48-8.72-2.39-2.96-.91-5.76-1.99-8.37-3.25-2.62-1.25-5.07-2.68-7.35-4.27-2.28-1.59-4.27-3.3-5.98-5.13-1.71-1.82-3.02-3.87-3.93-6.15-.91-2.28-1.37-4.67-1.37-7.18V88.87Z"/>
</svg>